/* XPM */
static char *graphic[] = {
"32 32 5 1",
". c #C6C6C6",
", c #FFFF00",
"- c #00FFFF",
"* c None",
"a c #000084",
"................,,..............",
"................,,..............",
"................,,..............",
"................,,..............",
"........,,......,,......,,......",
"........,,,.....,,.....,,,......",
".........,,.....,,....,,,.......",
"..........,,....,,....,,........",
"..........,,,...,,...,,.........",
"...........,,,..,,..,,,.........",
"............,,.....,,,....,,,,..",
"...,,,,,,,,........,,...,,,,,,..",
"...,,,,,,,,..--......,,,,,,.....",
"............---*.....,,,,.......",
"...........---***...............",
"..........---*****....,,,,,,,,..",
".........---*******...,,,,,,,,..",
"........---******aa.............",
".......---******aaa..,,,........",
"......---******aaa...,,,,.......",
".....---******aaa...,,.,,,,.....",
"....---******aaa....,,..,,,,....",
"...---******aaa......,,...,,,,..",
"..---******aaa...,,..,,....,,,..",
".---******aaa....,,...,,........",
"---******aaa.....,,...,,........",
"--******aaa......,,....,,.......",
"-******aaa.......,,....,,.......",
"******aaa........,,.............",
"*****aaa.........,,.............",
"****aaa.........................",
"***aaa.........................."}
