/* XPM */
static char *graphic[] = {
"8 16 3 1",
". c None",
", c #C6C6C6",
"- c #008400",
".,,,,,,,",
"..,,,,,,",
".-.,,,,,",
".--.,,,,",
".---.,,,",
".----.,,",
".-----.,",
".------.",
".------.",
".-----.,",
".----.,,",
".---.,,,",
".--.,,,,",
".-.,,,,,",
"..,,,,,,",
".,,,,,,,"}
