/* XPM */
static char *graphic[] = {
"16 16 5 1",
". c None",
", c #000000",
"- c #00FFFF",
"* c #C6C6C6",
"a c #848484",
".,,,,,,,,,,,,,,.",
",--------------,",
",----,,,,,-----,",
",----,***,-----,",
",---,*,,,*,----,",
",---,,---,,----,",
",---,,---,,----,",
",--,,,,,,,,,---,",
",-,*********,--,",
",-,***,,,***,--,",
",-,a***,***a,--,",
",--,a**,**a,---,",
",---,a***a,----,",
",----,,,,,-----,",
",--------------,",
".,,,,,,,,,,,,,,."}
