/* XPM */
static char *graphic[] = {
"16 16 4 1",
". c None",
", c #000000",
"- c #00FFFF",
"* c #848484",
".,,,,,,,,,,,,,,.",
",--------------,",
",--------------,",
",------,,------,",
",----,,**,,----,",
",--,,******,,--,",
",-,,********,,-,",
",--,********,--,",
",--,********,--,",
",--,********,--,",
",--,********,--,",
",--,,,,,,,,,,--,",
",--------------,",
",--------------,",
",--------------,",
".,,,,,,,,,,,,,,."}
