/* XPM */
static char *graphic[] = {
"32 32 4 1",
". c None",
", c #0000FF",
"- c #FFFF00",
"* c #000000",
"................................",
"................................",
",,,,,,,,,,,,,,,,................",
",--------------,................",
",--------------,................",
",--------------,................",
",--------------,................",
",,,,,,,,,,,,,,,,................",
"........**......................",
"..........**....................",
"............**..................",
"..............***...............",
".................**.............",
"...................**...........",
".............,,,,,,,,,,,,,,,,,,.",
".............,----------------,.",
".............,----------------,.",
".............,----------------,.",
"...........**,----------------,.",
".........**..,,,,,,,,,,,,,,,,,,.",
".......**.......................",
".....**.........................",
"...**...........................",
",,,,,,,,,,,,,,,,,...............",
",---------------,...............",
",---------------,...............",
",---------------,...............",
",---------------,...............",
",,,,,,,,,,,,,,,,,...............",
"................................",
"................................",
"................................"}
