/* XPM */
static char *graphic[] = {
"32 16 5 1",
". c None",
", c #000000",
"- c #FFFF00",
"* c #848484",
"a c #FFFFFF",
"......,,,....-........***....*..",
".....,-,-,..-........*.*a*..*.a.",
"....,-,--,.....-....*.a*a*a..a.*",
"...,--,---,...-....*.a*.a.*...*.",
"...,--,---,..-.....*a.*a..*a.*.a",
".,,---,,--,.-....**.a.**..*a*.a.",
",-,---,-,-,.....*.*a..*a*.*a.a..",
",-,---,-,-,.----*a*a..*a*a*a****",
",*,---,-,-,.....*a*a..*a*a*a.aaa",
".,,*--,,--,.-....**a..**.a*a*...",
"...,--,---,..-....a*..*aa.*a.*..",
"...,*-,*--,...-....*a.*a..*a..*.",
"....,*,*-,.....-....*..*.*.a...*",
".....,,,*,..-........*.*a*a.*...",
"......,,,....-........***.a..*..",
".......................aaa....a."}
